<?xml version="1.0" standalone="no"?>
<!DOCTYPE svg PUBLIC "-//W3C//DTD SVG 20010904//EN"
 "http://www.w3.org/TR/2001/REC-SVG-20010904/DTD/svg10.dtd">
<svg version="1.0" xmlns="http://www.w3.org/2000/svg"
 width="504.000000pt" height="511.000000pt" viewBox="0 0 504.000000 511.000000"
 preserveAspectRatio="xMidYMid meet">

<g transform="translate(0.000000,511.000000) scale(0.100000,-0.100000)"
fill="#000000" stroke="none">
<path d="M0 2555 l0 -2555 2520 0 2520 0 0 2555 0 2555 -2520 0 -2520 0 0
-2555z m1263 1611 c105 -45 137 -182 61 -266 -44 -49 -82 -64 -145 -58 -91 9
-149 74 -149 168 0 71 27 116 90 148 51 25 96 28 143 8z m-58 -384 c24 3 56
14 72 25 27 20 29 20 57 2 49 -30 98 -33 145 -10 53 28 83 26 120 -5 24 -20
31 -34 31 -61 0 -29 -10 -45 -65 -100 -104 -106 -165 -250 -181 -425 l-7 -78
47 0 c39 0 53 -5 77 -29 36 -36 39 -84 7 -118 -18 -19 -32 -23 -85 -23 l-63 0
0 -35 c0 -47 28 -246 46 -322 38 -163 162 -439 207 -458 27 -12 34 -51 12 -75
-15 -16 -14 -21 15 -66 73 -115 87 -245 36 -347 -24 -49 -24 -50 -6 -76 11
-14 20 -39 22 -56 l3 -30 -505 -3 c-278 -1 -510 0 -517 2 -16 7 1 77 23 93 16
12 15 16 -9 71 -54 119 -44 210 37 336 42 65 41 64 20 87 -15 17 -15 20 0 44
9 14 23 25 32 25 21 0 147 262 177 370 30 102 55 245 64 358 l6 82 -72 0 c-63
0 -75 3 -96 25 -35 34 -33 78 4 116 26 25 37 29 87 29 l57 0 -7 78 c-16 175
-71 305 -177 416 -59 62 -69 79 -69 109 0 27 7 41 31 61 37 31 62 33 118 5 48
-23 98 -20 146 10 29 17 31 16 73 -7 34 -19 53 -23 87 -20z m2831 -251 c123
-56 151 -230 55 -331 l-38 -40 37 0 c74 0 79 -62 6 -68 -22 -2 -36 -8 -36 -17
0 -47 61 -298 106 -437 25 -78 26 -78 60 -78 67 0 98 -42 54 -73 -18 -13 -19
-16 -4 -121 10 -69 22 -118 34 -135 10 -14 21 -38 24 -53 l6 -28 -370 0 -370
0 0 29 c0 15 9 40 21 55 13 17 27 63 40 134 17 95 18 108 4 118 -37 27 -6 74
48 74 21 0 26 8 45 73 33 114 102 419 102 452 0 2 -19 5 -42 7 -40 3 -43 5
-43 33 0 28 3 30 43 33 l42 3 -31 32 c-42 42 -59 85 -59 151 0 67 9 93 52 141
57 66 134 82 214 46z m-980 -146 c-3 -13 -8 -30 -11 -37 -4 -10 9 -24 34 -41
23 -16 62 -60 92 -104 62 -93 156 -187 242 -242 122 -79 137 -91 143 -115 9
-36 -22 -92 -91 -165 l-61 -64 -67 36 c-114 60 -174 66 -362 35 -39 -6 -88 -8
-110 -4 -54 11 -112 69 -121 124 -6 39 -25 59 -45 46 -5 -3 -9 -29 -9 -57 1
-191 159 -432 406 -618 l91 -68 -28 -168 c-36 -211 -36 -208 1 -223 44 -18 51
-57 15 -86 l-27 -22 40 -54 c126 -166 139 -325 39 -460 l-21 -28 26 -27 c15
-16 32 -41 37 -56 23 -61 75 -57 -685 -57 l-697 0 6 37 c4 22 19 50 38 69 l32
33 -26 38 c-40 58 -60 121 -60 194 -1 78 24 137 102 239 49 63 61 90 41 90 -5
0 -14 9 -20 21 -15 26 9 66 45 75 31 8 31 10 1 48 -154 202 -217 694 -132
1029 48 189 105 295 216 407 77 78 151 124 257 161 137 48 314 68 431 50 l72
-11 52 36 53 36 33 -37 c25 -27 32 -43 28 -60z"/>
</g>
</svg>
